<svg xmlns="http://www.w3.org/2000/svg" width="900" height="520" viewBox="0 0 900 520">
<rect width="100%" height="100%" fill="white"/>
<text x="80" y="24" font-family="Arial, sans-serif" font-size="20" fill="#111">DDPM Training / Validation Loss Curve (none)</text>
<line x1="80" y1="450" x2="870" y2="450" stroke="#333" stroke-width="1.5"/>
<line x1="80" y1="40" x2="80" y2="450" stroke="#333" stroke-width="1.5"/>
<line x1="80.0" y1="450" x2="80.0" y2="456" stroke="#333"/>
<text x="80.0" y="472" text-anchor="middle" font-family="Arial" font-size="12" fill="#333">1</text>
<line x1="225.10204081632654" y1="450" x2="225.10204081632654" y2="456" stroke="#333"/>
<text x="225.10204081632654" y="472" text-anchor="middle" font-family="Arial" font-size="12" fill="#333">10</text>
<line x1="370.2040816326531" y1="450" x2="370.2040816326531" y2="456" stroke="#333"/>
<text x="370.2040816326531" y="472" text-anchor="middle" font-family="Arial" font-size="12" fill="#333">19</text>
<line x1="515.3061224489795" y1="450" x2="515.3061224489795" y2="456" stroke="#333"/>
<text x="515.3061224489795" y="472" text-anchor="middle" font-family="Arial" font-size="12" fill="#333">28</text>
<line x1="660.4081632653061" y1="450" x2="660.4081632653061" y2="456" stroke="#333"/>
<text x="660.4081632653061" y="472" text-anchor="middle" font-family="Arial" font-size="12" fill="#333">37</text>
<line x1="805.5102040816327" y1="450" x2="805.5102040816327" y2="456" stroke="#333"/>
<text x="805.5102040816327" y="472" text-anchor="middle" font-family="Arial" font-size="12" fill="#333">46</text>
<line x1="74" y1="40" x2="80" y2="40" stroke="#333"/>
<text x="70" y="44" text-anchor="end" font-family="Arial" font-size="12" fill="#333">0.214</text>
<line x1="74" y1="142.5" x2="80" y2="142.5" stroke="#333"/>
<text x="70" y="146.5" text-anchor="end" font-family="Arial" font-size="12" fill="#333">0.181</text>
<line x1="74" y1="245.0" x2="80" y2="245.0" stroke="#333"/>
<text x="70" y="249.0" text-anchor="end" font-family="Arial" font-size="12" fill="#333">0.148</text>
<line x1="74" y1="347.5" x2="80" y2="347.5" stroke="#333"/>
<text x="70" y="351.5" text-anchor="end" font-family="Arial" font-size="12" fill="#333">0.114</text>
<line x1="74" y1="450.0" x2="80" y2="450.0" stroke="#333"/>
<text x="70" y="454.0" text-anchor="end" font-family="Arial" font-size="12" fill="#333">0.081</text>
<line x1="80.0" y1="40" x2="80.0" y2="450" stroke="#eee"/>
<line x1="225.10204081632654" y1="40" x2="225.10204081632654" y2="450" stroke="#eee"/>
<line x1="370.2040816326531" y1="40" x2="370.2040816326531" y2="450" stroke="#eee"/>
<line x1="515.3061224489795" y1="40" x2="515.3061224489795" y2="450" stroke="#eee"/>
<line x1="660.4081632653061" y1="40" x2="660.4081632653061" y2="450" stroke="#eee"/>
<line x1="805.5102040816327" y1="40" x2="805.5102040816327" y2="450" stroke="#eee"/>
<line x1="80" y1="40" x2="870" y2="40" stroke="#eee"/>
<line x1="80" y1="142.5" x2="870" y2="142.5" stroke="#eee"/>
<line x1="80" y1="245.0" x2="870" y2="245.0" stroke="#eee"/>
<line x1="80" y1="347.5" x2="870" y2="347.5" stroke="#eee"/>
<line x1="80" y1="450.0" x2="870" y2="450.0" stroke="#eee"/>
<polyline fill="none" stroke="#1f77b4" stroke-width="2.5" points="80.0,68.3 96.1,323.6 112.2,352.4 128.4,363.0 144.5,367.0 160.6,366.2 176.7,370.4 192.9,375.1 209.0,378.0 225.1,380.3 241.2,383.7 257.3,381.7 273.5,388.2 289.6,384.0 305.7,388.4 321.8,389.4 338.0,393.0 354.1,395.7 370.2,398.8 386.3,396.7 402.4,399.0 418.6,395.6 434.7,401.9 450.8,400.9 466.9,403.5 483.1,405.2 499.2,403.3 515.3,409.3 531.4,405.3 547.6,408.6 563.7,408.6 579.8,409.0 595.9,408.9 612.0,409.6 628.2,411.5 644.3,410.8 660.4,416.8 676.5,412.4 692.7,415.0 708.8,411.3 724.9,414.2 741.0,416.5 757.1,412.3 773.3,414.7 789.4,413.5 805.5,418.0 821.6,420.4 837.8,415.0 853.9,415.8 870.0,412.6"/>
<polyline fill="none" stroke="#d62728" stroke-width="2.5" points="80.0,290.4 96.1,339.4 112.2,362.4 128.4,352.4 144.5,377.5 160.6,382.6 176.7,372.7 192.9,375.1 209.0,389.2 225.1,381.3 241.2,383.1 257.3,376.7 273.5,382.8 289.6,383.7 305.7,390.4 321.8,397.4 338.0,391.1 354.1,391.0 370.2,397.0 386.3,397.8 402.4,399.2 418.6,400.4 434.7,397.4 450.8,397.6 466.9,406.9 483.1,403.7 499.2,405.8 515.3,406.4 531.4,406.2 547.6,414.4 563.7,399.3 579.8,404.8 595.9,405.1 612.0,408.8 628.2,409.4 644.3,404.4 660.4,404.0 676.5,421.7 692.7,416.8 708.8,412.7 724.9,413.5 741.0,416.8 757.1,411.3 773.3,421.1 789.4,407.4 805.5,411.8 821.6,413.7 837.8,412.9 853.9,411.7 870.0,406.1"/>
<circle cx="676.5" cy="421.7" r="5" fill="#111"/>
<text x="686.5" y="413.7" font-family="Arial" font-size="12" fill="#111">best val @ epoch 38</text>
<rect x="610" y="50" width="240" height="70" rx="8" fill="#fafafa" stroke="#ddd"/>
<line x1="628" y1="72" x2="668" y2="72" stroke="#1f77b4" stroke-width="3"/>
<text x="680" y="76" font-family="Arial" font-size="13" fill="#333">train_loss</text>
<line x1="628" y1="95" x2="668" y2="95" stroke="#d62728" stroke-width="3"/>
<text x="680" y="99" font-family="Arial" font-size="13" fill="#333">val_loss</text>
</svg>