<svg xmlns="http://www.w3.org/2000/svg" width="900" height="520" viewBox="0 0 900 520">
<rect width="100%" height="100%" fill="white"/>
<text x="80" y="24" font-family="Arial, sans-serif" font-size="20" fill="#111">DDPM Training / Validation Loss Curve (q20)</text>
<line x1="80" y1="450" x2="870" y2="450" stroke="#333" stroke-width="1.5"/>
<line x1="80" y1="40" x2="80" y2="450" stroke="#333" stroke-width="1.5"/>
<line x1="80.0" y1="450" x2="80.0" y2="456" stroke="#333"/>
<text x="80.0" y="472" text-anchor="middle" font-family="Arial" font-size="12" fill="#333">1</text>
<line x1="225.10204081632654" y1="450" x2="225.10204081632654" y2="456" stroke="#333"/>
<text x="225.10204081632654" y="472" text-anchor="middle" font-family="Arial" font-size="12" fill="#333">10</text>
<line x1="370.2040816326531" y1="450" x2="370.2040816326531" y2="456" stroke="#333"/>
<text x="370.2040816326531" y="472" text-anchor="middle" font-family="Arial" font-size="12" fill="#333">19</text>
<line x1="515.3061224489795" y1="450" x2="515.3061224489795" y2="456" stroke="#333"/>
<text x="515.3061224489795" y="472" text-anchor="middle" font-family="Arial" font-size="12" fill="#333">28</text>
<line x1="660.4081632653061" y1="450" x2="660.4081632653061" y2="456" stroke="#333"/>
<text x="660.4081632653061" y="472" text-anchor="middle" font-family="Arial" font-size="12" fill="#333">37</text>
<line x1="805.5102040816327" y1="450" x2="805.5102040816327" y2="456" stroke="#333"/>
<text x="805.5102040816327" y="472" text-anchor="middle" font-family="Arial" font-size="12" fill="#333">46</text>
<line x1="74" y1="40" x2="80" y2="40" stroke="#333"/>
<text x="70" y="44" text-anchor="end" font-family="Arial" font-size="12" fill="#333">0.242</text>
<line x1="74" y1="142.5" x2="80" y2="142.5" stroke="#333"/>
<text x="70" y="146.5" text-anchor="end" font-family="Arial" font-size="12" fill="#333">0.204</text>
<line x1="74" y1="245.0" x2="80" y2="245.0" stroke="#333"/>
<text x="70" y="249.0" text-anchor="end" font-family="Arial" font-size="12" fill="#333">0.167</text>
<line x1="74" y1="347.5" x2="80" y2="347.5" stroke="#333"/>
<text x="70" y="351.5" text-anchor="end" font-family="Arial" font-size="12" fill="#333">0.130</text>
<line x1="74" y1="450.0" x2="80" y2="450.0" stroke="#333"/>
<text x="70" y="454.0" text-anchor="end" font-family="Arial" font-size="12" fill="#333">0.093</text>
<line x1="80.0" y1="40" x2="80.0" y2="450" stroke="#eee"/>
<line x1="225.10204081632654" y1="40" x2="225.10204081632654" y2="450" stroke="#eee"/>
<line x1="370.2040816326531" y1="40" x2="370.2040816326531" y2="450" stroke="#eee"/>
<line x1="515.3061224489795" y1="40" x2="515.3061224489795" y2="450" stroke="#eee"/>
<line x1="660.4081632653061" y1="40" x2="660.4081632653061" y2="450" stroke="#eee"/>
<line x1="805.5102040816327" y1="40" x2="805.5102040816327" y2="450" stroke="#eee"/>
<line x1="80" y1="40" x2="870" y2="40" stroke="#eee"/>
<line x1="80" y1="142.5" x2="870" y2="142.5" stroke="#eee"/>
<line x1="80" y1="245.0" x2="870" y2="245.0" stroke="#eee"/>
<line x1="80" y1="347.5" x2="870" y2="347.5" stroke="#eee"/>
<line x1="80" y1="450.0" x2="870" y2="450.0" stroke="#eee"/>
<polyline fill="none" stroke="#1f77b4" stroke-width="2.5" points="80.0,68.3 96.1,341.9 112.2,365.4 128.4,373.8 144.5,377.9 160.6,384.6 176.7,381.3 192.9,389.3 209.0,389.8 225.1,387.0 241.2,394.5 257.3,395.2 273.5,389.2 289.6,396.7 305.7,395.3 321.8,394.9 338.0,394.8 354.1,396.4 370.2,399.8 386.3,403.3 402.4,400.8 418.6,407.2 434.7,403.0 450.8,403.8 466.9,402.6 483.1,406.4 499.2,412.7 515.3,406.1 531.4,408.8 547.6,408.9 563.7,408.7 579.8,404.4 595.9,413.7 612.0,408.6 628.2,409.7 644.3,413.4 660.4,408.6 676.5,414.4 692.7,413.2 708.8,414.7 724.9,412.7 741.0,416.9 757.1,414.2 773.3,418.8 789.4,417.6 805.5,414.9 821.6,421.2 837.8,419.5 853.9,416.6 870.0,412.7"/>
<polyline fill="none" stroke="#d62728" stroke-width="2.5" points="80.0,318.0 96.1,358.7 112.2,378.8 128.4,367.2 144.5,389.9 160.6,378.5 176.7,379.5 192.9,387.1 209.0,378.3 225.1,386.2 241.2,395.3 257.3,392.6 273.5,404.4 289.6,393.4 305.7,398.0 321.8,396.2 338.0,393.3 354.1,390.1 370.2,385.8 386.3,402.0 402.4,400.5 418.6,410.2 434.7,395.9 450.8,407.4 466.9,399.3 483.1,410.5 499.2,400.8 515.3,407.2 531.4,411.4 547.6,404.0 563.7,413.5 579.8,414.2 595.9,403.9 612.0,420.1 628.2,401.2 644.3,406.9 660.4,407.9 676.5,415.1 692.7,413.8 708.8,409.1 724.9,421.7 741.0,412.6 757.1,417.0 773.3,419.9 789.4,418.2 805.5,413.8 821.6,412.6 837.8,418.5 853.9,419.3 870.0,420.7"/>
<circle cx="724.9" cy="421.7" r="5" fill="#111"/>
<text x="734.9" y="413.7" font-family="Arial" font-size="12" fill="#111">best val @ epoch 41</text>
<rect x="610" y="50" width="240" height="70" rx="8" fill="#fafafa" stroke="#ddd"/>
<line x1="628" y1="72" x2="668" y2="72" stroke="#1f77b4" stroke-width="3"/>
<text x="680" y="76" font-family="Arial" font-size="13" fill="#333">train_loss</text>
<line x1="628" y1="95" x2="668" y2="95" stroke="#d62728" stroke-width="3"/>
<text x="680" y="99" font-family="Arial" font-size="13" fill="#333">val_loss</text>
</svg>